<svg preserveAspectRatio="none" width="100%" height="100%" overflow="visible" style="display: block;" viewBox="0 0 1171 481" fill="none" xmlns="http://www.w3.org/2000/svg">
<g id="Ambient light below" filter="url(#filter0_f_0_97)">
<path id="Vector 2865" d="M184.636 178.212C151.245 207.437 129 277.192 129 277.192L1039.65 284C1039.65 284 1052.33 247.779 1049.62 224.298C1045.05 184.681 1024.91 162.45 991.885 139.982C933.126 100 840.936 174.493 810.805 159.359L733.649 120.605C703.518 105.471 717.566 205.413 651.769 178.212L483.287 108.56C417.49 81.3591 392.164 126.487 334.224 139.982C275.499 153.66 229.971 138.535 184.636 178.212Z" fill="var(--fill-0, #320FFA)"/>
<path id="Vector 2866" d="M149.776 235.136C119.902 261.343 100 323.895 100 323.895L914.738 330C914.738 330 926.085 297.52 923.66 276.463C919.569 240.937 901.548 221.002 872.005 200.854C819.435 165 736.955 231.801 709.997 218.23L640.967 183.477C614.009 169.906 626.578 259.528 567.711 235.136L416.973 172.676C358.106 148.284 335.447 188.752 283.61 200.854C231.07 213.119 190.336 199.556 149.776 235.136Z" fill="var(--fill-0, #6C8DFA)"/>
<path id="Vector 2867" d="M296.776 286.136C266.902 312.343 247 374.895 247 374.895L1061.74 381C1061.74 381 1073.09 348.52 1070.66 327.463C1066.57 291.937 1048.55 272.002 1019.01 251.854C966.435 216 883.955 282.801 856.997 269.23L787.967 234.477C761.009 220.906 773.578 310.528 714.711 286.136L563.973 223.676C505.106 199.284 482.447 239.752 430.61 251.854C378.07 264.119 337.336 250.556 296.776 286.136Z" fill="var(--fill-0, white)"/>
</g>
<defs>
<filter id="filter0_f_0_97" x="0" y="4.51046e-07" width="1171" height="481" filterUnits="userSpaceOnUse" color-interpolation-filters="sRGB">
<feFlood flood-opacity="0" result="BackgroundImageFix"/>
<feBlend mode="normal" in="SourceGraphic" in2="BackgroundImageFix" result="shape"/>
<feGaussianBlur stdDeviation="31.25" result="effect1_foregroundBlur_0_97"/>
</filter>
</defs>
</svg>
